
		<svg xmlns="http://www.w3.org/2000/svg" xmlns:xlink="http://www.w3.org/1999/xlink" version="1.1" width="3122.6415082570056" height="1449.776416036964">
			
			<g transform="scale(6.132075412850286) translate(10, 10)">
				<defs id="SvgjsDefs5138"><linearGradient id="SvgjsLinearGradient5143"><stop id="SvgjsStop5144" stop-color="#e93e3a" offset="0"/><stop id="SvgjsStop5145" stop-color="#ed683c" offset="0.1"/><stop id="SvgjsStop5146" stop-color="#f3903f" offset="0.3"/><stop id="SvgjsStop5147" stop-color="#fdc70c" offset="0.7"/><stop id="SvgjsStop5148" stop-color="#fff33b" offset="1"/></linearGradient><linearGradient id="SvgjsLinearGradient5149"><stop id="SvgjsStop5150" stop-color="#e93e3a" offset="0"/><stop id="SvgjsStop5151" stop-color="#ed683c" offset="0.1"/><stop id="SvgjsStop5152" stop-color="#f3903f" offset="0.3"/><stop id="SvgjsStop5153" stop-color="#fdc70c" offset="0.7"/><stop id="SvgjsStop5154" stop-color="#fff33b" offset="1"/></linearGradient></defs><g id="SvgjsG5139" featureKey="root" fill="#fff" transform="matrix(1,0,0,1,NaN,NaN)"/><g id="SvgjsG5140" featureKey="symbol1" fill="#fff" transform="matrix(0.7862341161048924,0,0,0.7862341161048924,205.68829194532154,23.687505768191087)"><g><rect x="49.25" y="5.485" fill="url(#SvgjsLinearGradient5143)" width="1.5" height="14.549"/><rect x="49.25" y="79.965" fill="url(#SvgjsLinearGradient5143)" width="1.5" height="14.55"/><rect x="79.966" y="49.25" fill="url(#SvgjsLinearGradient5143)" width="14.55" height="1.5"/><rect x="5.484" y="49.25" fill="url(#SvgjsLinearGradient5143)" width="14.55" height="1.5"/><rect x="75.584" y="16.391" transform="matrix(0.7071 0.7071 -0.7071 0.7071 39.092 -47.0443)" fill="url(#SvgjsLinearGradient5143)" width="1.5" height="14.55"/><rect x="22.917" y="69.058" transform="matrix(-0.7071 -0.7071 0.7071 -0.7071 -13.5743 147.0433)" fill="url(#SvgjsLinearGradient5143)" width="1.5" height="14.55"/><rect x="16.392" y="22.915" transform="matrix(0.7071 0.7071 -0.7071 0.7071 23.6669 -9.8031)" fill="url(#SvgjsLinearGradient5143)" width="14.549" height="1.5"/><rect x="69.058" y="75.582" transform="matrix(-0.7072 -0.707 0.707 -0.7072 76.3443 184.2817)" fill="url(#SvgjsLinearGradient5143)" width="14.55" height="1.5"/><path fill="url(#SvgjsLinearGradient5143)" d="M71.787,45.424c0-6.969-5.67-12.639-12.64-12.639c-3.7,0-7.103,1.626-9.444,4.252   c-2.341-2.626-5.745-4.252-9.446-4.252c-6.969,0-12.639,5.67-12.639,12.639c0,0.435,0.023,0.873,0.068,1.303   c0.498,5.347,4.144,10.984,10.835,16.722c4.742,4.066,9.304,6.692,9.496,6.802l1.475,0.844l1.482-0.83   c0.196-0.11,4.844-2.731,9.678-6.792c6.826-5.733,10.55-11.374,11.068-16.763C71.764,46.3,71.787,45.861,71.787,45.424z    M68.735,46.422c-1.061,11.041-19.227,21.225-19.227,21.225s-17.81-10.189-18.838-21.234c-0.034-0.324-0.052-0.654-0.052-0.988   c0-5.322,4.314-9.639,9.639-9.639c4.663,0,8.553,3.312,9.446,7.712c0.894-4.399,4.781-7.712,9.443-7.712   c5.323,0,9.64,4.316,9.64,9.639C68.787,45.762,68.77,46.094,68.735,46.422z"/></g></g><g id="SvgjsG5141" featureKey="text1" fill="#fff" transform="matrix(3.1699067327470534,0,0,3.1699067327470534,12.603550148873282,92.31565566206143)"><path d="M7.88 6.84 q-0.68 -0.02 -1.4 0.03 t-1.42 0.13 t-1.36 0.18 t-1.2 0.18 q0.06 1.52 0.12 3.02 t0.15 3.03 t0.22 3.11 t0.33 3.28 q0 0.08 -0.14 0.14 t-0.3 0.06 t-0.31 -0.05 t-0.19 -0.21 q-0.08 -0.96 -0.14 -2.16 t-0.12 -2.45 t-0.13 -2.48 t-0.15 -2.27 t-0.17 -1.8 t-0.19 -1.08 q-1.16 0 -2.45 0.14 t-2.49 0.28 q-0.2 0.04 -0.34 -0.02 t-0.17 -0.16 t0.09 -0.22 t0.46 -0.24 q1.44 -0.26 2.78 -0.43 t2.64 -0.3 t2.62 -0.26 t2.72 -0.33 q0.1 0 0.23 0.11 t0.22 0.26 t0.13 0.3 t-0.04 0.21 z M5.880000000000001 5.6 q0.02 0.06 0.04 0.51 t0.03 1.15 t0.01 1.59 t0.01 1.83 t0.01 1.86 l0 1.69 l0 1.3 l0 0.71 q0.22 -0.98 0.63 -1.62 t0.75 -0.68 q0.4 -0.08 0.61 0.17 t0.34 0.68 t0.26 0.96 t0.35 1.01 t0.6 0.85 t1.04 0.45 q-0.52 0.44 -0.93 0.4 t-0.73 -0.36 t-0.56 -0.82 t-0.4 -0.98 t-0.26 -0.84 t-0.14 -0.42 q-0.12 -0.16 -0.26 -0.02 t-0.29 0.44 t-0.28 0.69 t-0.23 0.74 t-0.16 0.59 t-0.06 0.22 q-0.06 0.26 -0.1 0.68 t-0.05 0.83 t0 0.74 t0.05 0.41 q-0.14 0 -0.4 -0.09 t-0.4 -0.09 l0 -1.57 l0 -2.16 t-0.01 -2.55 t-0.04 -2.75 t-0.07 -2.76 t-0.12 -2.59 q0 -0.04 0.24 -0.15 t0.52 -0.05 z M12.220000000000002 14.34 q0.06 -0.02 0.34 -0.11 t0.46 -0.03 q0.58 -0.02 0.89 0.3 t0.05 1.24 q-0.38 1.02 -1.01 1.7 t-1.49 1.3 q0.2 0.52 0.6 0.58 t0.84 -0.13 t0.86 -0.51 t0.68 -0.56 q0.42 -0.36 0.67 -0.61 t0.53 -0.61 q0.06 -0.04 0.07 0.01 t-0.01 0.15 t-0.06 0.28 q-0.06 0.14 -0.12 0.25 t-0.17 0.24 t-0.29 0.31 t-0.44 0.48 q-0.3 0.28 -0.58 0.55 t-0.59 0.47 t-0.68 0.28 t-0.85 0 q-0.4 -0.14 -0.64 -0.3 t-0.37 -0.33 t-0.19 -0.31 t-0.08 -0.24 q-0.1 -0.4 -0.08 -1.08 t0.4 -1.76 q0.26 -0.56 0.56 -0.95 t0.7 -0.61 z M11.340000000000002 17.88 q0.26 -0.14 0.61 -0.39 t0.66 -0.58 t0.54 -0.73 t0.25 -0.84 q0.06 -0.3 -0.02 -0.42 q-0.04 -0.06 -0.08 -0.06 q-0.34 -0.16 -0.68 0.1 t-0.62 0.74 t-0.47 1.07 t-0.19 1.11 z  M19.700000000000003 6.08 q0.04 0.16 0.1 0.72 t0.14 1.37 t0.18 1.82 t0.21 2.07 t0.23 2.1 t0.26 1.92 t0.28 1.54 t0.28 0.94 q0.3 0.28 0.68 0.2 t0.78 -0.37 t0.78 -0.73 t0.71 -0.88 t0.57 -0.81 t0.34 -0.51 q0.08 0.12 0.14 0.22 q0.04 0.1 0.06 0.19 t-0.02 0.13 q-0.24 0.5 -0.56 1.01 t-0.66 0.98 t-0.68 0.84 t-0.6 0.59 q-0.62 0.4 -1.05 0.54 t-0.97 -0.26 q-0.22 -0.32 -0.34 -0.71 t-0.21 -0.92 t-0.17 -1.19 t-0.18 -1.52 q-0.24 -2.38 -0.46 -3.99 t-0.4 -2.63 t-0.3 -1.52 t-0.16 -0.68 q0.12 -0.08 0.21 -0.17 t0.2 -0.16 t0.25 -0.11 t0.36 -0.02 z M26.360000000000003 11.2 q0.2 -0.04 0.24 0.24 t-0.08 0.42 q-0.22 0.18 -0.28 0.31 t-0.28 0.17 q-0.12 -0.02 -0.21 -0.01 t-0.15 -0.33 q0.08 -0.22 0.25 -0.44 t0.51 -0.36 z M26.42 13.8 q0.1 0.96 0.14 2.11 t0.14 2.41 q0.08 0.64 0.16 1 t0.12 0.68 q-0.32 0.06 -0.5 -0.01 t-0.34 -0.17 q-0.04 -0.32 -0.09 -1.06 t-0.1 -1.61 t-0.1 -1.69 t-0.09 -1.3 q0.08 -0.04 0.13 -0.12 t0.11 -0.14 t0.16 -0.1 t0.26 0 z M30.92 14.04 q0.86 -0.06 1.69 -0.13 t1.73 -0.15 q0.2 0.02 0.26 0.21 t-0.16 0.23 q-0.74 0.08 -1.7 0.22 t-1.82 0.36 q0.04 0.62 0.04 1.27 t0.03 1.28 t0.12 1.22 t0.29 1.09 q0.28 0.34 0.56 0.4 t0.53 -0.03 t0.46 -0.28 t0.37 -0.37 q0.14 -0.14 0.23 0 t-0.17 0.42 q-0.12 0.14 -0.3 0.3 t-0.43 0.27 t-0.56 0.14 t-0.67 -0.07 q-0.46 -0.12 -0.68 -0.74 t-0.33 -1.45 t-0.15 -1.73 t-0.1 -1.62 q-0.88 0.08 -1.29 0.14 t-0.59 0.08 t-0.24 -0.02 t-0.22 -0.18 q0.02 -0.1 0.01 -0.19 t0 -0.15 t0.08 -0.12 t0.27 -0.1 q0.3 -0.08 0.87 -0.09 t1.11 -0.09 q-0.02 -0.64 -0.04 -1 t-0.04 -0.63 t-0.03 -0.53 t-0.01 -0.68 q0 -0.1 0.11 -0.15 t0.25 -0.06 t0.26 0.04 t0.16 0.15 q0.06 0.18 0.08 0.53 t0.03 0.74 t0.01 0.79 t-0.02 0.68 z M36.52 14.04 q0.86 -0.06 1.69 -0.13 t1.73 -0.15 q0.2 0.02 0.26 0.21 t-0.16 0.23 q-0.74 0.08 -1.7 0.22 t-1.82 0.36 q0.04 0.62 0.04 1.27 t0.03 1.28 t0.12 1.22 t0.29 1.09 q0.28 0.34 0.56 0.4 t0.53 -0.03 t0.46 -0.28 t0.37 -0.37 q0.14 -0.14 0.23 0 t-0.17 0.42 q-0.12 0.14 -0.3 0.3 t-0.43 0.27 t-0.56 0.14 t-0.67 -0.07 q-0.46 -0.12 -0.68 -0.74 t-0.33 -1.45 t-0.15 -1.73 t-0.1 -1.62 q-0.88 0.08 -1.29 0.14 t-0.59 0.08 t-0.24 -0.02 t-0.22 -0.18 q0.02 -0.1 0.01 -0.19 t0 -0.15 t0.08 -0.12 t0.27 -0.1 q0.3 -0.08 0.87 -0.09 t1.11 -0.09 q-0.02 -0.64 -0.04 -1 t-0.04 -0.63 t-0.03 -0.53 t-0.01 -0.68 q0 -0.1 0.11 -0.15 t0.25 -0.06 t0.26 0.04 t0.16 0.15 q0.06 0.18 0.08 0.53 t0.03 0.74 t0.01 0.79 t-0.02 0.68 z M39.96000000000001 15.86 q0 0.06 0.06 0.56 t0.14 1.22 t0.19 1.55 t0.2 1.58 t0.17 1.32 t0.1 0.73 q-0.12 -0.02 -0.2 -0.04 t-0.16 -0.1 t-0.19 -0.23 t-0.31 -0.43 q-0.26 -1.84 -0.41 -3.21 t-0.25 -2.23 q-0.36 0.48 -0.52 0.64 t-0.2 0.16 q-0.06 0 -0.02 -0.18 l0.04 -0.2 t0.04 -0.18 t0.06 -0.14 q0.14 -0.2 0.25 -0.4 t0.17 -0.36 q0.08 -0.2 0.12 -0.38 q-0.02 -0.22 -0.03 -0.38 t-0.01 -0.33 t-0.01 -0.35 t-0.01 -0.46 l0 -0.79 l0 -1.18 t0.02 -1.37 t0.05 -1.37 t0.08 -1.18 t0.11 -0.81 q0.14 -0.58 0.43 -0.89 t0.61 -0.36 t0.63 0.16 t0.47 0.65 q0.18 0.44 0.18 1.14 t-0.12 1.53 t-0.33 1.73 t-0.45 1.75 t-0.48 1.59 t-0.42 1.24 z M39.800000000000004 14.719999999999999 q0.5 -1.46 0.82 -2.87 t0.47 -2.53 t0.1 -1.81 t-0.29 -0.71 q-0.38 -0.14 -0.6 0.26 t-0.35 1.12 t-0.17 1.65 t-0.03 1.85 t0.03 1.74 t0.02 1.3 z M43.04 14.34 q0.06 -0.02 0.34 -0.11 t0.46 -0.03 q0.58 -0.02 0.89 0.3 t0.05 1.24 q-0.38 1.02 -1.01 1.7 t-1.49 1.3 q0.2 0.52 0.6 0.58 t0.84 -0.13 t0.86 -0.51 t0.68 -0.56 q0.42 -0.36 0.67 -0.61 t0.53 -0.61 q0.06 -0.04 0.07 0.01 t-0.01 0.15 t-0.06 0.28 q-0.06 0.14 -0.12 0.25 t-0.17 0.24 t-0.29 0.31 t-0.44 0.48 q-0.3 0.28 -0.58 0.55 t-0.59 0.47 t-0.68 0.28 t-0.85 0 q-0.4 -0.14 -0.64 -0.3 t-0.37 -0.33 t-0.19 -0.31 t-0.08 -0.24 q-0.1 -0.4 -0.08 -1.08 t0.4 -1.76 q0.26 -0.56 0.56 -0.95 t0.7 -0.61 z M42.160000000000004 17.88 q0.26 -0.14 0.61 -0.39 t0.66 -0.58 t0.54 -0.73 t0.25 -0.84 q0.06 -0.3 -0.02 -0.42 q-0.04 -0.06 -0.08 -0.06 q-0.34 -0.16 -0.68 0.1 t-0.62 0.74 t-0.47 1.07 t-0.19 1.11 z  M51.160000000000004 6.48 q0.06 -0.04 0.14 0.04 q0.06 0.06 0.12 0.24 t0.12 0.52 q0.6 -0.12 1.06 -0.22 t0.88 -0.2 t0.86 -0.21 t1.02 -0.23 q0.36 -0.04 0.56 -0.09 t0.31 -0.08 t0.16 -0.05 t0.11 0 q0.04 0.18 0.06 0.26 t0.01 0.12 t-0.04 0.08 l-0.09 0.12 q-0.26 0.1 -0.75 0.26 t-1.07 0.33 t-1.17 0.34 t-1.07 0.27 q-0.08 0.02 -0.2 0.06 l-0.24 0.08 q-0.14 0.06 -0.3 0.1 q0.02 0.36 0.02 0.49 t-0.01 0.29 t-0.02 0.49 t0.03 1.11 q-0.02 0.08 -0.01 0.34 t0.03 0.56 q0.02 0.36 0.06 0.78 q0.36 -0.06 0.69 -0.2 t0.75 -0.32 t0.99 -0.39 t1.41 -0.41 q0.12 0.12 -0.04 0.26 t-0.47 0.3 t-0.7 0.34 t-0.73 0.38 q-0.44 0.18 -0.73 0.33 t-0.48 0.26 t-0.33 0.16 t-0.28 0.05 q0 0.2 0.02 0.72 t0.05 1.2 t0.06 1.45 t0.07 1.46 t0.08 1.25 t0.08 0.82 q-0.2 0.04 -0.43 0.06 t-0.47 0.02 l0 -1.2 q0 -1.38 -0.05 -2.71 t-0.15 -2.79 l-0.39 0.15 t-0.21 0.07 t-0.17 0.01 t-0.27 -0.05 q0.04 -0.16 -0.07 -0.16 t-0.11 -0.12 q0.06 -0.18 0.2 -0.27 t0.31 -0.14 t0.34 -0.11 t0.29 -0.2 q-0.02 -0.76 -0.04 -1.3 t-0.03 -0.97 t-0.04 -0.84 t-0.05 -0.89 q-0.2 0.08 -0.36 0.07 t-0.26 -0.13 q-0.14 -0.16 -0.14 -0.36 t0.02 -0.26 q-0.02 -0.02 0.09 -0.08 t0.23 -0.12 q0.14 -0.08 0.34 -0.16 q-0.02 -0.26 0.02 -0.48 q0.04 -0.18 0.12 -0.34 t0.26 -0.16 z  M55.86000000000001 13.68 q-0.02 -0.18 0.19 -0.09 t0.43 0.19 q0.08 0.46 0.12 0.73 t0.06 0.51 t0.04 0.52 t0.06 0.74 q0.18 -0.46 0.44 -0.85 t0.67 -0.67 t0.98 -0.41 t1.37 -0.09 q0 0.16 -0.11 0.27 t-0.51 0.17 q-0.58 0.1 -1.01 0.39 t-0.74 0.67 t-0.5 0.81 t-0.31 0.79 q-0.02 0.18 -0.05 0.51 t-0.04 0.7 t-0.02 0.72 t0.03 0.55 q0.02 0.1 -0.09 0.15 t-0.25 0.07 t-0.26 -0.02 t-0.12 -0.14 q0.04 -2.06 -0.11 -3.55 t-0.27 -2.67 z M60.64000000000001 11.2 q0.2 -0.04 0.24 0.24 t-0.08 0.42 q-0.22 0.18 -0.28 0.31 t-0.28 0.17 q-0.12 -0.02 -0.21 -0.01 t-0.15 -0.33 q0.08 -0.22 0.25 -0.44 t0.51 -0.36 z M60.70000000000001 13.8 q0.1 0.96 0.14 2.11 t0.14 2.41 q0.08 0.64 0.16 1 t0.12 0.68 q-0.32 0.06 -0.5 -0.01 t-0.34 -0.17 q-0.04 -0.32 -0.09 -1.06 t-0.1 -1.61 t-0.1 -1.69 t-0.09 -1.3 q0.08 -0.04 0.13 -0.12 t0.11 -0.14 t0.16 -0.1 t0.26 0 z M69.08000000000001 9.48 q-0.06 0.36 -0.14 0.76 t-0.17 0.76 t-0.15 0.62 t-0.08 0.32 q-0.12 0.34 -0.32 0.88 t-0.47 1.13 t-0.61 1.18 t-0.7 1.01 q0 0.3 0.07 1.01 t0.17 1.53 t0.19 1.61 t0.11 1.23 q-0.1 0.1 -0.18 -0.04 t-0.24 -0.48 q-0.12 -0.52 -0.19 -0.96 t-0.13 -0.89 t-0.13 -0.95 t-0.21 -1.14 q-0.38 0.48 -0.91 1.09 t-1.1 1.08 t-1.12 0.66 t-0.95 -0.17 q-0.24 -0.32 -0.21 -0.75 t0.24 -0.88 t0.54 -0.89 t0.67 -0.82 t0.64 -0.66 t0.44 -0.4 q0.28 -0.18 0.47 -0.29 t0.34 -0.18 t0.31 -0.1 t0.4 -0.01 q-0.04 -0.46 -0.05 -1.1 t0 -1.29 t0.04 -1.21 t0.09 -0.86 q0.04 -0.44 0.19 -0.92 t0.38 -0.93 t0.51 -0.8 t0.61 -0.5 t0.68 -0.07 t0.69 0.5 q0.28 0.34 0.28 0.85 l0 1.07 z M66.44000000000001 14.82 q0.36 -0.4 0.6 -0.85 t0.54 -1.07 q0.26 -0.54 0.47 -1.38 t0.29 -1.65 t0 -1.41 t-0.4 -0.64 q-0.28 -0.04 -0.52 0.21 t-0.44 0.62 t-0.34 0.79 t-0.2 0.74 q-0.08 0.4 -0.11 0.72 t-0.04 0.67 t-0.03 0.76 t-0.08 1.01 q0 0.3 0.03 0.6 t0.08 0.51 t0.09 0.32 t0.06 0.05 z M63.54000000000001 16.68 q-0.54 0.56 -0.79 1.03 t-0.41 0.87 l0 0.19 t0.03 0.25 t0.12 0.21 t0.29 0.05 q0.2 -0.08 0.33 -0.16 t0.24 -0.17 t0.24 -0.19 t0.33 -0.26 q0.28 -0.3 0.69 -0.68 t0.72 -0.8 t0.41 -0.86 t-0.26 -0.86 q-0.14 0 -0.29 0.04 t-0.37 0.19 t-0.53 0.42 t-0.75 0.73 z M74.56 17.82 q0.04 0.04 -0.01 0.14 t-0.14 0.22 t-0.18 0.23 t-0.13 0.15 q-0.48 0.54 -0.86 0.93 t-0.62 0.67 q0 0.02 -0.01 0.23 t-0.01 0.23 q-0.04 0.68 -0.03 1.37 t-0.09 1.39 q-0.12 0.8 -0.25 1.29 t-0.27 0.8 t-0.29 0.52 t-0.33 0.47 q-0.16 0.22 -0.36 0.38 t-0.54 0.38 q-0.46 0.28 -0.96 0.42 t-0.92 0.05 t-0.71 -0.45 t-0.33 -1.08 q-0.04 -0.8 0.28 -1.58 t0.76 -1.42 t0.86 -1.08 t0.58 -0.6 q0.26 -0.28 0.47 -0.48 t0.43 -0.37 t0.47 -0.37 t0.59 -0.48 q0.08 -0.48 0.1 -1.01 t0 -1.09 q-0.36 0.74 -0.77 1.16 t-0.74 0.63 t-0.54 0.26 t-0.17 0.05 q-0.38 0.06 -0.61 0.03 t-0.36 -0.12 t-0.2 -0.21 t-0.11 -0.24 q-0.1 -0.52 0.01 -1.07 t0.33 -1.05 t0.48 -0.92 t0.48 -0.68 q0.04 -0.04 0.19 -0.21 t0.39 -0.38 t0.59 -0.43 t0.81 -0.4 q0.46 -0.1 0.94 -0.09 t0.78 0.23 q-0.16 0.06 -0.49 0.15 t-0.43 0.13 l0 0.04 q0 0.06 0.04 0.06 q-0.34 -0.08 -1.06 0.28 t-1.56 1.38 q-0.38 0.54 -0.58 0.97 t-0.29 0.74 t-0.09 0.53 t0.02 0.34 q0.02 0.08 0.14 0.14 t0.3 0.02 q0.52 -0.12 0.97 -0.53 t0.82 -0.93 t0.63 -1.02 t0.38 -0.8 q0.2 -0.46 0.21 -0.85 t-0.03 -0.39 l0.03 0 l0.05 0 t0.01 0.01 t-0.13 0.03 q0.04 -0.04 0.08 -0.05 t0.08 -0.03 q-0.02 -0.02 0.01 -0.05 t0.07 -0.03 q0 -0.04 0.1 -0.08 l0.12 -0.04 l0.06 -0.04 q0.08 -0.04 0.1 -0.06 t0.05 -0.02 t0.11 0.03 t0.28 0.09 q-0.18 0.48 -0.31 1.17 t-0.23 1.39 t-0.17 1.33 t-0.13 0.99 q0.16 -0.16 0.47 -0.38 t0.61 -0.44 q0.36 -0.24 0.76 -0.5 z M72.04 21.28 q0.06 -0.46 -0.02 -0.56 q-0.04 -0.06 -0.1 -0.04 q-0.54 0.44 -0.88 0.74 t-0.46 0.4 q-0.96 0.9 -1.43 1.59 t-0.63 1.27 q-0.22 0.64 -0.25 1.13 t0.25 0.95 q0.5 0.38 1.09 0.15 t1.09 -0.71 q0.58 -0.66 0.94 -1.85 t0.4 -3.07 z M76.44 14.34 q0.06 -0.02 0.34 -0.11 t0.46 -0.03 q0.58 -0.02 0.89 0.3 t0.05 1.24 q-0.38 1.02 -1.01 1.7 t-1.49 1.3 q0.2 0.52 0.6 0.58 t0.84 -0.13 t0.86 -0.51 t0.68 -0.56 q0.42 -0.36 0.67 -0.61 t0.53 -0.61 q0.06 -0.04 0.07 0.01 t-0.01 0.15 t-0.06 0.28 q-0.06 0.14 -0.12 0.25 t-0.17 0.24 t-0.29 0.31 t-0.44 0.48 q-0.3 0.28 -0.58 0.55 t-0.59 0.47 t-0.68 0.28 t-0.85 0 q-0.4 -0.14 -0.64 -0.3 t-0.37 -0.33 t-0.19 -0.31 t-0.08 -0.24 q-0.1 -0.4 -0.08 -1.08 t0.4 -1.76 q0.26 -0.56 0.56 -0.95 t0.7 -0.61 z M75.56 17.88 q0.26 -0.14 0.61 -0.39 t0.66 -0.58 t0.54 -0.73 t0.25 -0.84 q0.06 -0.3 -0.02 -0.42 q-0.04 -0.06 -0.08 -0.06 q-0.34 -0.16 -0.68 0.1 t-0.62 0.74 t-0.47 1.07 t-0.19 1.11 z  M86.3 6.92 q-0.02 -0.02 0.01 -0.05 l0.05 -0.05 t0 -0.02 t-0.12 0.02 q-0.44 0.18 -0.89 0.73 t-0.86 1.3 t-0.77 1.58 t-0.61 1.55 t-0.38 1.23 t-0.09 0.61 q-0.22 0.1 -0.43 0.11 t-0.25 -0.33 q0.08 -0.42 0.32 -1.14 t0.58 -1.55 t0.73 -1.67 t0.79 -1.48 q0.48 -0.76 0.84 -1.16 t0.34 -0.4 q0.28 -0.18 0.56 -0.25 t0.58 0.05 q0.18 0.06 0.3 0.38 t0.19 0.71 t0.09 0.78 t0.02 0.57 q0 0.56 -0.03 1.05 t-0.06 1.03 t-0.07 1.15 t-0.06 1.41 q0.08 -0.42 0.29 -1.02 t0.49 -1.18 t0.64 -1.06 t0.78 -0.66 q0.48 -0.04 0.62 0.47 t0.2 1.29 q0 0.08 0.02 0.39 t0.05 0.72 t0.06 0.86 t0.07 0.8 t0.08 0.56 t0.08 0.15 q0.24 -0.4 0.52 -0.88 t0.58 -0.91 t0.61 -0.74 t0.61 -0.39 q0.34 -0.08 0.55 0.33 t0.33 1.11 t0.19 1.58 t0.15 1.72 t0.19 1.55 t0.31 1.07 q-0.28 0.12 -0.48 -0.06 t-0.44 -0.32 q-0.06 -0.2 -0.09 -0.69 t-0.07 -1.11 t-0.08 -1.29 t-0.11 -1.24 t-0.17 -0.94 t-0.24 -0.41 q-0.1 0 -0.14 -0.05 t-0.18 0.11 q-0.54 0.6 -0.89 1.16 t-0.56 1.01 t-0.3 0.76 t-0.11 0.37 q-0.16 0.44 -0.3 1.21 t-0.18 1.61 q-0.2 0.06 -0.25 -0.07 t-0.23 -0.31 q0.02 -0.1 0.03 -0.63 t0 -1.31 t-0.04 -1.69 t-0.08 -1.77 t-0.13 -1.56 t-0.18 -1.06 q-0.12 -0.02 -0.32 0.2 t-0.39 0.53 t-0.35 0.61 t-0.2 0.44 q-0.4 1.08 -0.61 1.81 t-0.3 1.24 t-0.11 0.87 t-0.08 0.72 q-0.04 0.54 -0.07 0.94 t-0.03 0.79 t0.02 0.84 t0.06 1.07 q-0.3 0.02 -0.46 -0.11 t-0.5 -0.45 q0.02 -0.2 0.06 -0.66 t0.08 -0.96 t0.07 -0.89 t0.03 -0.43 q0.06 -0.74 0.08 -1.24 t0.04 -0.9 t0.03 -0.78 t0.01 -0.9 q0.02 -0.46 0.03 -0.79 t0.01 -0.81 q0 -0.06 0.01 -0.66 t0.01 -1.37 t-0.02 -1.54 t-0.08 -1.21 z M99.56000000000002 14.120000000000001 q-0.02 0.12 -0.09 0.5 t-0.15 0.89 t-0.14 1.07 t-0.07 1.06 t0.06 0.85 t0.23 0.43 q0.46 0.22 0.94 -0.15 t1.12 -1.13 q0.06 0 0.01 0.16 t-0.16 0.35 l-0.22 0.38 t-0.17 0.25 q-0.16 0.2 -0.46 0.45 t-0.64 0.4 t-0.65 0.13 t-0.51 -0.36 q-0.1 -0.24 -0.12 -0.59 t0 -0.71 t0.06 -0.66 t0.06 -0.44 q-0.42 0.78 -0.96 1.48 t-1.06 1.1 t-0.96 0.43 t-0.68 -0.51 q-0.14 -0.52 0 -1.17 t0.42 -1.17 q0.42 -0.72 0.88 -1.32 t0.98 -1.02 t1.09 -0.61 t1.19 -0.09 z M95.80000000000001 19.2 q0.2 0.04 0.64 -0.3 t0.92 -0.95 t0.87 -1.42 t0.51 -1.71 l-0.23 0 t-0.35 0.12 q-0.76 0.5 -1.3 1.17 t-0.84 1.3 t-0.36 1.13 t0.14 0.66 z M107.42 17.82 q0.04 0.04 -0.01 0.14 t-0.14 0.22 t-0.18 0.23 t-0.13 0.15 q-0.48 0.54 -0.86 0.93 t-0.62 0.67 q0 0.02 -0.01 0.23 t-0.01 0.23 q-0.04 0.68 -0.03 1.37 t-0.09 1.39 q-0.12 0.8 -0.25 1.29 t-0.27 0.8 t-0.29 0.52 t-0.33 0.47 q-0.16 0.22 -0.36 0.38 t-0.54 0.38 q-0.46 0.28 -0.96 0.42 t-0.92 0.05 t-0.71 -0.45 t-0.33 -1.08 q-0.04 -0.8 0.28 -1.58 t0.76 -1.42 t0.86 -1.08 t0.58 -0.6 q0.26 -0.28 0.47 -0.48 t0.43 -0.37 t0.47 -0.37 t0.59 -0.48 q0.08 -0.48 0.1 -1.01 t0 -1.09 q-0.36 0.74 -0.77 1.16 t-0.74 0.63 t-0.54 0.26 t-0.17 0.05 q-0.38 0.06 -0.61 0.03 t-0.36 -0.12 t-0.2 -0.21 t-0.11 -0.24 q-0.1 -0.52 0.01 -1.07 t0.33 -1.05 t0.48 -0.92 t0.48 -0.68 q0.04 -0.04 0.19 -0.21 t0.39 -0.38 t0.59 -0.43 t0.81 -0.4 q0.46 -0.1 0.94 -0.09 t0.78 0.23 q-0.16 0.06 -0.49 0.15 t-0.43 0.13 l0 0.04 q0 0.06 0.04 0.06 q-0.34 -0.08 -1.06 0.28 t-1.56 1.38 q-0.38 0.54 -0.58 0.97 t-0.29 0.74 t-0.09 0.53 t0.02 0.34 q0.02 0.08 0.14 0.14 t0.3 0.02 q0.52 -0.12 0.97 -0.53 t0.82 -0.93 t0.63 -1.02 t0.38 -0.8 q0.2 -0.46 0.21 -0.85 t-0.03 -0.39 l0.03 0 l0.05 0 t0.01 0.01 t-0.13 0.03 q0.04 -0.04 0.08 -0.05 t0.08 -0.03 q-0.02 -0.02 0.01 -0.05 t0.07 -0.03 q0 -0.04 0.1 -0.08 l0.12 -0.04 l0.06 -0.04 q0.08 -0.04 0.1 -0.06 t0.05 -0.02 t0.11 0.03 t0.28 0.09 q-0.18 0.48 -0.31 1.17 t-0.23 1.39 t-0.17 1.33 t-0.13 0.99 q0.16 -0.16 0.47 -0.38 t0.61 -0.44 q0.36 -0.24 0.76 -0.5 z M104.9 21.28 q0.06 -0.46 -0.02 -0.56 q-0.04 -0.06 -0.1 -0.04 q-0.54 0.44 -0.88 0.74 t-0.46 0.4 q-0.96 0.9 -1.43 1.59 t-0.63 1.27 q-0.22 0.64 -0.25 1.13 t0.25 0.95 q0.5 0.38 1.09 0.15 t1.09 -0.71 q0.58 -0.66 0.94 -1.85 t0.4 -3.07 z M108.44 13.9 q0 0.56 -0.01 1.12 t-0.02 1.08 t-0.02 0.98 t-0.03 0.82 q0 -0.08 0.09 -0.39 t0.25 -0.71 t0.35 -0.85 t0.41 -0.8 t0.45 -0.55 t0.43 -0.12 q0.44 0.2 0.62 0.58 t0.26 0.87 t0.16 1.09 t0.36 1.26 q0.12 0.3 0.35 0.44 t0.44 0.2 t0.34 0.07 t0.09 0.07 q-0.5 0.38 -0.86 0.26 t-0.61 -0.53 t-0.41 -0.98 t-0.29 -1.1 t-0.23 -0.9 t-0.22 -0.37 q-0.18 0.02 -0.39 0.34 t-0.43 0.8 t-0.42 1.05 t-0.37 1.07 t-0.27 0.86 t-0.12 0.44 q-0.3 0 -0.37 0.02 t-0.23 -0.2 q0.1 -1.76 0.07 -3.33 t-0.09 -2.73 q0 -0.18 0.09 -0.18 t0.2 0.08 t0.23 0.16 t0.2 0.08 z M114.58 14.34 q0.06 -0.02 0.34 -0.11 t0.46 -0.03 q0.58 -0.02 0.89 0.3 t0.05 1.24 q-0.38 1.02 -1.01 1.7 t-1.49 1.3 q0.2 0.52 0.6 0.58 t0.84 -0.13 t0.86 -0.51 t0.68 -0.56 q0.42 -0.36 0.67 -0.61 t0.53 -0.61 q0.06 -0.04 0.07 0.01 t-0.01 0.15 t-0.06 0.28 q-0.06 0.14 -0.12 0.25 t-0.17 0.24 t-0.29 0.31 t-0.44 0.48 q-0.3 0.28 -0.58 0.55 t-0.59 0.47 t-0.68 0.28 t-0.85 0 q-0.4 -0.14 -0.64 -0.3 t-0.37 -0.33 t-0.19 -0.31 t-0.08 -0.24 q-0.1 -0.4 -0.08 -1.08 t0.4 -1.76 q0.26 -0.56 0.56 -0.95 t0.7 -0.61 z M113.7 17.88 q0.26 -0.14 0.61 -0.39 t0.66 -0.58 t0.54 -0.73 t0.25 -0.84 q0.06 -0.3 -0.02 -0.42 q-0.04 -0.06 -0.08 -0.06 q-0.34 -0.16 -0.68 0.1 t-0.62 0.74 t-0.47 1.07 t-0.19 1.11 z M120.96000000000001 14.04 q0.86 -0.06 1.69 -0.13 t1.73 -0.15 q0.2 0.02 0.26 0.21 t-0.16 0.23 q-0.74 0.08 -1.7 0.22 t-1.82 0.36 q0.04 0.62 0.04 1.27 t0.03 1.28 t0.12 1.22 t0.29 1.09 q0.28 0.34 0.56 0.4 t0.53 -0.03 t0.46 -0.28 t0.37 -0.37 q0.14 -0.14 0.23 0 t-0.17 0.42 q-0.12 0.14 -0.3 0.3 t-0.43 0.27 t-0.56 0.14 t-0.67 -0.07 q-0.46 -0.12 -0.68 -0.74 t-0.33 -1.45 t-0.15 -1.73 t-0.1 -1.62 q-0.88 0.08 -1.29 0.14 t-0.59 0.08 t-0.24 -0.02 t-0.22 -0.18 q0.02 -0.1 0.01 -0.19 t0 -0.15 t0.08 -0.12 t0.27 -0.1 q0.3 -0.08 0.87 -0.09 t1.11 -0.09 q-0.02 -0.64 -0.04 -1 t-0.04 -0.63 t-0.03 -0.53 t-0.01 -0.68 q0 -0.1 0.11 -0.15 t0.25 -0.06 t0.26 0.04 t0.16 0.15 q0.06 0.18 0.08 0.53 t0.03 0.74 t0.01 0.79 t-0.02 0.68 z  M131.92 7.779999999999999 q0.18 0.4 0.23 0.52 t0.09 0.4 q-0.24 -0.2 -0.42 -0.34 t-0.36 -0.25 t-0.4 -0.19 t-0.52 -0.14 q-0.8 -0.1 -1.51 0.06 t-1.2 0.51 t-0.69 0.86 t0 1.11 q0.22 0.66 0.68 1.27 t1.05 1.19 t1.26 1.09 t1.28 0.96 t1.13 0.81 t0.8 0.62 q0.62 -0.32 1.16 -0.54 t1.12 -0.44 l0.12 0 q0.08 0.02 0.02 0.12 q-0.18 0.16 -0.43 0.34 t-0.51 0.37 t-0.51 0.37 t-0.45 0.32 q0.58 0.58 0.76 1.05 t0.02 0.92 t-0.66 0.92 t-1.3 1.01 q-0.52 0.36 -1.12 0.62 t-1.11 0.31 t-0.82 -0.19 t-0.21 -0.9 q0.32 -1.08 1.18 -2 t1.98 -1.86 q0 -0.06 -0.39 -0.34 t-1 -0.72 t-1.34 -1.02 t-1.4 -1.22 t-1.19 -1.34 t-0.7 -1.38 q-0.24 -0.86 -0.11 -1.5 t0.42 -1.07 t0.64 -0.67 t0.57 -0.32 q0.46 -0.14 0.93 -0.24 t0.95 -0.06 t0.97 0.27 t0.99 0.71 z M130.28 20.44 q-0.04 0.14 0.1 0.23 t0.46 0.07 t0.81 -0.19 t1.17 -0.57 q0.5 -0.34 0.77 -0.74 t0.32 -0.79 t-0.13 -0.72 t-0.6 -0.53 q-0.2 0.1 -0.67 0.47 t-0.96 0.85 t-0.87 1 t-0.4 0.92 z M136.54 5.6 q0.02 0.06 0.04 0.51 t0.03 1.15 t0.01 1.59 t0.01 1.83 t0.01 1.86 l0 1.69 l0 1.3 l0 0.71 q0.22 -0.98 0.63 -1.62 t0.75 -0.68 q0.4 -0.08 0.61 0.17 t0.34 0.68 t0.26 0.96 t0.35 1.01 t0.6 0.85 t1.04 0.45 q-0.52 0.44 -0.93 0.4 t-0.73 -0.36 t-0.56 -0.82 t-0.4 -0.98 t-0.26 -0.84 t-0.14 -0.42 q-0.12 -0.16 -0.26 -0.02 t-0.29 0.44 t-0.28 0.69 t-0.23 0.74 t-0.16 0.59 t-0.06 0.22 q-0.06 0.26 -0.1 0.68 t-0.05 0.83 t0 0.74 t0.05 0.41 q-0.14 0 -0.4 -0.09 t-0.4 -0.09 l0 -1.57 l0 -2.16 t-0.01 -2.55 t-0.04 -2.75 t-0.07 -2.76 t-0.12 -2.59 q0 -0.04 0.24 -0.15 t0.52 -0.05 z M141.17999999999998 14 q0.38 0.02 0.84 0.11 t0.9 0.24 t0.81 0.34 t0.61 0.43 q0.24 0.22 0.28 0.67 t-0.06 0.99 t-0.31 1.11 t-0.47 1.03 t-0.56 0.76 t-0.56 0.3 q-0.44 0 -0.74 -0.21 t-0.48 -0.51 t-0.27 -0.63 t-0.11 -0.57 q-0.06 -1.06 -0.02 -1.88 t0.14 -1.36 q-0.06 -0.1 -0.12 -0.18 t-0.12 -0.15 t-0.14 -0.13 q0.08 -0.04 0.16 -0.12 q0.16 -0.12 0.22 -0.24 z M141.89999999999998 18.76 q0.06 0.08 0.16 0.17 t0.25 0.14 t0.31 0.01 t0.34 -0.22 q0.48 -0.5 0.72 -1.03 t0.31 -1 t-0.02 -0.83 t-0.29 -0.52 q-0.16 -0.1 -0.27 -0.17 t-0.28 -0.13 t-0.43 -0.13 t-0.68 -0.19 q-0.2 0.64 -0.28 1.28 t-0.07 1.17 t0.08 0.92 t0.15 0.53 z M149.72 14.52 q0.08 0.04 0.19 0.1 t0.21 0.18 t0.17 0.31 t0.07 0.49 q-0.04 1.04 -0.52 1.88 t-1.15 1.42 t-1.39 0.86 t-1.22 0.2 q0 1.94 0.03 3.24 t0.04 2.13 t0 1.25 t-0.06 0.58 t-0.18 0.15 t-0.33 -0.05 q-0.04 0.06 -0.06 -0.1 q-0.02 -0.14 -0.03 -0.5 t-0.01 -1.12 q0 -0.06 -0.01 -0.69 t-0.02 -1.58 t-0.04 -2.09 t-0.07 -2.22 t-0.09 -2 t-0.13 -1.42 q0 -0.04 -0.02 -0.2 l-0.05 -0.4 t-0.08 -0.52 t-0.11 -0.54 q0.34 -0.02 0.46 0.07 t0.24 0.21 q0.12 0.38 0.23 1.22 t0.25 2.28 q0.04 -0.2 0.21 -0.56 t0.45 -0.77 t0.64 -0.81 t0.76 -0.68 t0.81 -0.39 t0.81 0.07 z M147.2 19.02 q0.92 -0.38 1.45 -0.98 t0.77 -1.19 t0.24 -1.05 t-0.18 -0.58 q-0.4 -0.26 -0.76 -0.06 t-0.7 0.48 q-0.18 0.16 -0.5 0.57 t-0.64 0.91 t-0.55 1.01 t-0.23 0.89 q0.08 0.1 0.24 0.14 q0.12 0.04 0.33 0.02 t0.53 -0.16 z"/></g><g id="SvgjsG5142" featureKey="text3" fill="#fff" transform="matrix(1.0541935643441787,0,0,1.0541935643441787,125.52782108416523,185.63164008203483)"><path d="M1.3965 22.304675 l1.4063 0 l0 -11.26 l-1.4063 0 l0 -1.8652 l4.6875 0 l4.6973 12.783 l4.7559 -12.783 l4.4434 0 l0 1.8652 l-1.3965 0 l0 11.26 l1.3965 0 l0 1.6797 l-4.8047 0 l0 -1.6797 l1.582 0 l0 -11.367 l-5.1758 13.047 l-1.6602 0 l-5.2441 -13.076 l0 11.396 l1.5234 0 l0 1.6797 l-4.8047 0 l0 -1.6797 z M34.02659564962074 22.304675 l1.2305 0 l-1.1719 -3.3594 l-5.6934 0 l-1.1426 3.3594 l1.5234 0 l0 1.6797 l-4.8047 0 l0 -1.6797 l1.2891 0 l4.6094 -13.125 l2.8809 0 l4.5996 13.125 l1.4844 0 l0 1.6797 l-4.8047 0 l0 -1.6797 z M28.948695649620735 17.324175 l4.5703 0 l-2.3047 -6.6211 z M42.819331924241474 9.179375 l5.5078 0 q1.015625 0 1.93359375 0.263671875 t1.709 0.74219 t1.4355 1.1475 t1.0986 1.4893 t0.69824 1.7627 t0.24414 1.958 q0 1.03515625 -0.244140625 1.982421875 t-0.69824 1.7773 t-1.0986 1.5088 t-1.4355 1.1621 t-1.709 0.74707 t-1.9336 0.26367 l-5.5078 0 l0 -1.6797 l1.4063 0 l0 -11.436 l-1.4063 0 l0 -1.6895 z M46.13963192424147 10.869375 l0 11.436 l2.3047 0 q1.025390625 0 1.928710938 -0.44921875 t1.5771 -1.2256 t1.0645 -1.8262 t0.39063 -2.2607 q0 -1.19140625 -0.390625 -2.2265625 t-1.0645 -1.8018 t-1.5771 -1.2061 t-1.9287 -0.43945 l-2.3047 0 z M60.02977132386221 9.179375 l10.605 0 l0 4.1895 l-2.002 0 l0 -2.5 l-5.2832 0 l0 4.7363 l4.4434 0 l0 1.6797 l-4.4434 0 l0 5.0195 l5.2832 0 l0 -2.5 l2.002 0 l0 4.1797 l-10.605 0 l0 -1.6797 l1.4063 0 l0 -11.436 l-1.4063 0 l0 -1.6895 z M73.68550759848294 23.984375 z M100.65215012310368 9.179375 l4.8047 0 l0 1.6895 l-1.2891 0 l-4.2285 13.115 l-2.9883 0 l-4.0137 -12.9 l-3.7012 12.9 l-2.959 0 l-4.3164 -13.115 l-1.3086 0 l0 -1.6895 l4.8047 0 l0 1.6895 l-1.2891 0 l3.584 11.377 l3.7793 -13.066 l2.9199 0 l4.0234 13.066 l3.6523 -11.377 l-1.4746 0 l0 -1.6895 z M109.44429264772442 9.179375 l4.7266 0 l0 1.6895 l-1.4063 0 l0 11.436 l1.4063 0 l0 1.6797 l-4.7266 0 l0 -1.6797 l1.4063 0 l0 -11.436 l-1.4063 0 l0 -1.6895 z M122.48476642234516 22.304675 l1.3574 0 l0 -11.523 l-3.3789 0 l0 2.3047 l-2.002 0 l0 -3.9063 l13.203 0 l0 3.9063 l-2.002 0 l0 -2.3047 l-3.9063 0 l0 11.523 l1.5234 0 l0 1.6797 l-4.7949 0 l0 -1.6797 z M146.35551519696588 9.179375 l4.8047 0 l0 1.6797 l-1.4063 0 l0 11.445 l1.4063 0 l0 1.6797 l-4.8047 0 l0 -1.6797 l1.4844 0 l0 -5.3223 l-8.5645 0 l0 5.3223 l1.4844 0 l0 1.6797 l-4.8047 0 l0 -1.6797 l1.4063 0 l0 -11.445 l-1.4063 0 l0 -1.6797 l4.8047 0 l0 1.6797 l-1.4844 0 l0 4.4824 l8.5645 0 l0 -4.4824 l-1.4844 0 l0 -1.6797 z M155.0502045965866 23.984375 z M163.31534712120734 9.179375 l4.8047 0 l0 1.6895 l-1.4844 0 l0 11.436 l5.1074 0 q0.15625 0 0.3125 -0.0732421875 t0.2832 -0.19043 t0.20508 -0.26855 t0.078125 -0.30762 l0 -1.8652 l1.8555 0 l0 4.3848 l-11.162 0 l0 -1.6797 l1.4063 0 l0 -11.436 l-1.4063 0 l0 -1.6895 z M184.87143964582805 24.277345 q-1.533203125 0 -2.802734375 -0.5712890625 t-2.2656 -1.626 t-1.5137 -2.5 t-0.51758 -2.998 q0 -1.6015625 0.5224609375 -3.0078125 t1.4648 -2.4463 t2.2461 -1.6406 t2.8662 -0.60059 q1.572265625 0 2.880859375 0.6005859375 t2.2461 1.6406 t1.4551 2.4463 t0.51758 3.0078 t-0.52246 3.0029 t-1.4648 2.4463 t-2.2461 1.6455 t-2.8662 0.60059 z M184.87143964582805 22.460975 q1.162109375 0 2.104492188 -0.478515625 t1.6064 -1.2842 t1.0254 -1.8701 t0.36133 -2.2461 q0 -1.2109375 -0.3955078125 -2.338867188 t-1.1035 -1.9092 t-1.6455 -1.2061 t-1.9531 -0.4248 q-1.162109375 0 -2.109375 0.478515625 t-1.6113 1.2842 t-1.0254 1.875 t-0.36133 2.2412 q0 1.3671875 0.400390625 2.436523438 t1.0596 1.7773 t1.5723 1.1865 t2.0752 0.47852 z M205.05068529544877 9.179375 l4.8047 0 l0 1.6895 l-1.2793 0 l-4.7949 13.115 l-2.6855 0 l-4.7266 -13.115 l-1.3086 0 l0 -1.6895 l4.8047 0 l0 1.6895 l-1.2891 0 l3.7988 11.416 l4.0723 -11.416 l-1.3965 0 l0 -1.6895 z M213.5501809450695 9.179375 l10.605 0 l0 4.1895 l-2.002 0 l0 -2.5 l-5.2832 0 l0 4.7363 l4.4434 0 l0 1.6797 l-4.4434 0 l0 5.0195 l5.2832 0 l0 -2.5 l2.002 0 l0 4.1797 l-10.605 0 l0 -1.6797 l1.4063 0 l0 -11.436 l-1.4063 0 l0 -1.6895 z"/></g>
			</g>
		</svg>
	